<svg id="Layer_1" data-name="Layer 1" xmlns="http://www.w3.org/2000/svg" xmlns:xlink="http://www.w3.org/1999/xlink" width="249.84" height="64.51" viewBox="0 0 249.84 64.51">
	<defs>
		<style>
			.cls-1{fill:#fff;}.cls-1,.cls-2{fill-rule:evenodd;}.cls-2{fill:#5f45ba;}.cls-3{mask:url(#mask);}.cls-4{mask:url(#mask-2);}
		</style>
		<mask id="mask" x="204.78" y="3.55" width="45.05" height="60.32" maskUnits="userSpaceOnUse">
			<g transform="translate(0)">
				<g id="mask0">
					<path class="cls-1" d="M204.78,3.55h45.06V63.87H204.78Z" />
				</g>
			</g>
		</mask>
		<mask id="mask-2" x="5.49" y="16.18" width="50.15" height="48.33" maskUnits="userSpaceOnUse">
			<g transform="translate(0)">
				<g id="mask1">
					<path class="cls-1" d="M5.49,16.18H55.63V64.51H5.49Z" />
				</g>
			</g>
		</mask>
	</defs>
	<title>
		logo
	</title>
	<path class="cls-2" d="M117.51,28a12.51,12.51,0,0,0-4.2.7,10,10,0,0,0-3.46,2.08,10.34,10.34,0,0,0-2.34,3.41,12,12,0,0,0-.89,4.79q0,5.49,3.15,8.23A11.21,11.21,0,0,0,117.42,50a15.35,15.35,0,0,0,4.61-.62A27.76,27.76,0,0,0,125.48,48a9.3,9.3,0,0,1,2.66,2.7,6.62,6.62,0,0,1,.88,3.5,6.2,6.2,0,0,1-3.45,5.62q-3.45,2-9.56,2a29.52,29.52,0,0,1-10.1-1.63,22.67,22.67,0,0,1-7.74-4.61,20.3,20.3,0,0,1-5-7.13,23.27,23.27,0,0,1-1.77-9.21A25.34,25.34,0,0,1,93.3,29a19.61,19.61,0,0,1,5.18-7.21,21.94,21.94,0,0,1,7.57-4.26,28.85,28.85,0,0,1,9.07-1.41q6.38,0,9.83,2.3a6.91,6.91,0,0,1,3.46,5.93,6.5,6.5,0,0,1-.8,3.15A11,11,0,0,1,125.75,30a29.52,29.52,0,0,0-3.63-1.37,15.47,15.47,0,0,0-4.61-.66" transform="translate(0)" />
	<path class="cls-2" d="M76.57,61a19.47,19.47,0,0,1-2.74.54,26.85,26.85,0,0,1-3.85.27,19.64,19.64,0,0,1-3.43-.27A5.77,5.77,0,0,1,64,60.47a5.14,5.14,0,0,1-1.6-2.2,9.75,9.75,0,0,1-.57-3.64v-27a7.92,7.92,0,0,1,.74-3.55,8.1,8.1,0,0,1,2.13-2.65,15,15,0,0,1,3.42-2.12,34.66,34.66,0,0,1,4.38-1.66,35.85,35.85,0,0,1,4.86-1.13,31.46,31.46,0,0,1,5-.4A11.46,11.46,0,0,1,89,17.79c1.62,1.11,2.43,2.93,2.43,5.44a9,9,0,0,1-.34,2.48,11.87,11.87,0,0,1-.87,2.2c-1.22,0-2.46.06-3.73.18a37.2,37.2,0,0,0-3.73.54c-1.21.24-2.35.5-3.42.77a14.64,14.64,0,0,0-2.73.94Z" transform="translate(0)" />
	<path class="cls-2" d="M174.72,61a20.29,20.29,0,0,1-2.66.53,25.48,25.48,0,0,1-3.75.26,18.6,18.6,0,0,1-3.33-.26,5.53,5.53,0,0,1-2.49-1.06,5,5,0,0,1-1.56-2.17,9.69,9.69,0,0,1-.55-3.58V35.13q0-3.63-1.73-5.08a6.33,6.33,0,0,0-4.26-1.46,11.56,11.56,0,0,0-3.2.44,8.81,8.81,0,0,0-2.45,1.06V61a20.29,20.29,0,0,1-2.66.53,25.48,25.48,0,0,1-3.75.26,18.6,18.6,0,0,1-3.33-.26,5.53,5.53,0,0,1-2.49-1.06A5,5,0,0,1,135,58.33a9.69,9.69,0,0,1-.55-3.58V3.48c.62-.11,1.53-.28,2.74-.48a21.39,21.39,0,0,1,3.67-.31,19.58,19.58,0,0,1,3.33.26A5.53,5.53,0,0,1,146.63,4a5,5,0,0,1,1.56,2.17,9.69,9.69,0,0,1,.55,3.58v8.66a31,31,0,0,1,3.33-1,20,20,0,0,1,4.94-.57q8.34,0,13,4.38t4.68,13Z" transform="translate(0)" />
	<path class="cls-2" d="M200.91,61.05l-2.82.47a23.67,23.67,0,0,1-3.77.3,19.79,19.79,0,0,1-3.43-.26,5.84,5.84,0,0,1-2.56-1,5,5,0,0,1-1.6-2.1,9,9,0,0,1-.56-3.49V20c.63-.12,1.57-.27,2.81-.47a23.8,23.8,0,0,1,3.78-.31,20.7,20.7,0,0,1,3.42.26,5.91,5.91,0,0,1,2.56,1,5,5,0,0,1,1.6,2.11,9,9,0,0,1,.57,3.48ZM185.47,7.74a7.53,7.53,0,0,1,2.21-5.5,8.77,8.77,0,0,1,11.71,0,7.53,7.53,0,0,1,2.21,5.5,7.53,7.53,0,0,1-2.21,5.5,8.77,8.77,0,0,1-11.71,0,7.53,7.53,0,0,1-2.21-5.5Z" transform="translate(0)" />
	<g class="cls-3">
		<path class="cls-2" d="M230.32,29.66c-3.24,0-5.72.92-7.46,2.76s-2.61,4.63-2.61,8.37.81,6.46,2.43,8.34,3.95,2.8,7,2.8a8.17,8.17,0,0,0,2.92-.49,6.69,6.69,0,0,0,2-1.11V30.73a8.24,8.24,0,0,0-4.32-1.07M204.78,40.79a26.41,26.41,0,0,1,1.8-10.2,19.46,19.46,0,0,1,5-7.17A20.57,20.57,0,0,1,219,19.19a29.77,29.77,0,0,1,9.21-1.39,19.34,19.34,0,0,1,3.51.32,14.82,14.82,0,0,1,2.79.75V4.44a24.7,24.7,0,0,1,2.88-.58,25.52,25.52,0,0,1,4-.31,22.28,22.28,0,0,1,3.55.26,6.19,6.19,0,0,1,2.66,1.07,4.89,4.89,0,0,1,1.62,2.19,10.06,10.06,0,0,1,.54,3.61V52.91a7.57,7.57,0,0,1-4,6.68,27.46,27.46,0,0,1-6.75,3,35.43,35.43,0,0,1-20-.31,21.48,21.48,0,0,1-7.83-4.63,19.73,19.73,0,0,1-4.85-7.27,26,26,0,0,1-1.67-9.58" transform="translate(0)" />
	</g>
	<path class="cls-2" d="M15.75,20.19a2.69,2.69,0,1,1-.94-3.68,2.7,2.7,0,0,1,.94,3.68" transform="translate(0)" />
	<path class="cls-2" d="M2.5,18.16A1.34,1.34,0,1,1,2,16.32a1.34,1.34,0,0,1,.47,1.84" transform="translate(0)" />
	<g class="cls-4">
		<path class="cls-2" d="M49.37,24.37a25.22,25.22,0,0,0-17.24-8.14,25.52,25.52,0,0,0-4.86.16h0c-.55,0-1.09.12-1.61.2l-.47.06,0,0a21.06,21.06,0,0,0-4.11,1.21h0c-2.55,1.2-3.95,3.18-3.95,5.59a6.14,6.14,0,0,0,6.25,6,17,17,0,0,0,3-.73,13.11,13.11,0,0,1,5-.66A12.74,12.74,0,0,1,41.67,34.4h0a11.89,11.89,0,0,1,1.57,6.71A12.58,12.58,0,0,1,29.76,52.58,12.74,12.74,0,0,1,20,47.18h0l-.07-.09-.51-.74c-1.73-2.86-1.51-6.79-1.44-7.61v-.11a6.14,6.14,0,0,0-6.25-5.82,6.25,6.25,0,0,0-6,4.46,10.75,10.75,0,0,0-.19,2.11c-.56,13,10,24.28,23.47,25.1.51,0,1,0,1.54,0a25,25,0,0,0,2.85-.16h0l.14,0,2-.22-.15-.06A24.46,24.46,0,0,0,55.58,41.87a23.45,23.45,0,0,0-6.21-17.5" transform="translate(0)" />
	</g>
	<path class="cls-2" d="M10.19,27.6a4,4,0,1,1-1.41-5.53,4,4,0,0,1,1.41,5.53" transform="translate(0)" />
</svg>
